PathFileType	4	(X/Y/Z)	OpenSim_Sub03_EMGBaseline_Accel.trc
DataRate	CameraRate	NumFrames	NumMarkers	Units	OrigDataRate	OrigDataStartFrame	OrigNumFrames
100	100	34	8	m	100	5530	7372
Frame#	Time	torso_imu_offset_imu	pelvis_imu_offset_imu	tibia_r_imu_offset_imu	femur_r_imu_offset_imu	tibia_l_imu_offset_imu	femur_l_imu_offset_imu	toes_r_imu_offset_imu	toes_l_imu_offset_imu
				X1	Y1	Z1	X2	Y2	Z2	X3	Y3	Z3	X4	Y4	Z4	X5	Y5	Z5	X6	Y6	Z6	X7	Y7	Z7	X8		Y8	Z8	

5530	55.29000000	8.90988609	1.50589129	5.75364830	9.48478272	-0.63836491	3.07115868	5.33332473	5.80582980	0.33601446	10.06043931	-1.08492312	2.30163541	9.79384611	0.04862173	-0.59381040	9.66247432	-0.10829412	-2.04662828	5.28356437	-2.37942881	6.45834473	6.16540295	1.45347633	10.37918054
5531	55.30000000	8.81786112	1.62956298	5.78556507	9.44737795	-0.79092086	3.09542804	5.41130519	5.39295333	0.50805932	9.94961296	-1.48206513	2.21101060	9.86197847	0.43264262	-0.80864069	9.64271012	0.12630767	-1.94602000	5.11359575	-0.62835510	6.30213711	6.27303619	1.57127053	10.21763353
5532	55.31000000	8.70770280	1.75876684	5.82752346	9.47438067	-0.82017622	3.06745159	5.62405559	5.29733936	0.53610327	9.62365300	-1.89025400	1.96511244	9.87760132	0.22247490	-0.84004607	9.48822228	0.39576135	-1.92056810	5.56548730	0.61343227	6.36866315	6.20665768	1.91509664	10.23317162
5533	55.32000000	8.58915846	1.84041437	5.79816196	9.47128482	-0.65822109	2.98652558	5.81020763	5.60855105	0.49424019	9.32441983	-1.90816665	1.78863512	9.59036069	-0.13871792	-0.83252437	9.36233550	0.53511545	-1.83428298	5.60245828	0.70390731	6.10526005	6.04409313	2.05371968	10.20362981
5534	55.33000000	8.50610134	1.84304558	5.77228850	9.28874635	-0.69466071	2.88017879	5.96654133	6.50099920	0.38245514	9.25113800	-1.79606554	1.72452817	9.57630126	-0.42166779	-0.87685167	9.32710827	0.35036496	-1.83198614	5.64891937	0.16922802	5.91073407	6.40901377	2.08815092	9.98174199
5535	55.34000000	8.45952940	1.80797091	5.74688608	9.11990713	-0.61536827	2.74861776	6.12793767	7.63370763	0.01522264	9.26837691	-1.60913330	1.79401278	9.68080425	-0.83354871	-0.84608875	9.29136783	0.06188110	-1.96778361	6.31148097	-0.09658435	6.14970095	6.60394312	1.85006413	9.79412547
5536	55.35000000	8.43673724	1.80497955	5.67934913	9.00840398	-0.51196241	2.57351599	6.17350064	8.15502844	-0.20201821	9.22879809	-1.19444756	1.94069277	9.58396019	-1.11089158	-0.85978293	9.25128809	-0.34905341	-2.00274210	7.42562235	0.08366018	6.65155401	6.45782276	1.96135311	9.86488244
5537	55.36000000	8.42608252	1.74128117	5.64996670	8.94381822	-0.48354890	2.49028120	5.88454616	7.60925431	0.04192719	9.08985095	-0.93788189	2.03796976	9.37360207	-1.32660025	-0.79238242	9.25606323	-0.63387011	-1.96327155	8.15971978	0.27197831	6.78789142	6.37523438	1.94962379	9.88867893
5538	55.37000000	8.46383458	1.64597973	5.64929594	8.87929366	-0.61366149	2.42239213	5.93993263	6.40020675	0.23063083	8.91575797	-0.64951018	2.04122895	9.33615763	-1.34065779	-0.84027138	9.27824295	-0.81075078	-1.87924173	8.26777489	-0.32637489	6.39113587	6.74326954	2.04720087	9.64093574
5539	55.38000000	8.52820549	1.59234681	5.66530629	8.98639117	-0.66158207	2.36490130	6.26666527	5.51148832	0.11459756	8.72444711	-0.30547048	2.14504705	9.40616241	-1.34122110	-0.94591254	9.28268630	-0.77847481	-1.86172484	8.52217814	-1.23050491	6.10699089	6.85960134	1.85106615	9.47777652
5540	55.39000000	8.49919371	1.55753297	5.65886592	9.09085549	-0.67974602	2.28535227	6.25280638	4.69585847	0.28692106	8.49766671	-0.07552817	2.27131352	9.44763784	-1.54201122	-0.89587645	9.23346251	-0.63455645	-1.93028567	9.55538120	-2.01227040	6.11570187	6.91474095	1.96367362	9.44338816
5541	55.40000000	8.51157659	1.49012839	5.63977312	9.02263940	-0.88919328	2.23329845	6.65653386	3.87483616	0.57290700	8.24655485	-0.18590118	2.30084072	9.34062878	-1.44542319	-0.88094368	9.17099699	-0.45342534	-1.94760238	10.44664035	-2.93119392	6.04876333	6.65282384	2.04141775	9.62058093
5542	55.41000000	8.54734980	1.47110384	5.64600557	9.03260704	-0.92214023	2.19171612	7.23929490	3.36231175	0.55962195	8.06225236	-0.45998133	2.35555651	9.28863093	-1.23746517	-0.84222739	9.13115135	-0.34037856	-1.94443184	10.72087820	-3.73161122	5.71099543	6.74754557	2.15662369	9.49732279
5543	55.42000000	8.50907709	1.43318964	5.67339909	8.91826104	-1.06825632	2.17721435	7.69119078	3.09154235	0.82363543	7.91553505	-0.72864588	2.49689064	9.39823921	-1.26343983	-0.95538465	9.17515686	-0.32041104	-1.96356821	10.81661483	-4.20284630	5.40611702	6.99559790	1.91808685	9.40075164
5544	55.43000000	8.42712465	1.41824314	5.71948529	8.93610802	-0.99527620	2.09473800	8.33578389	3.33233571	0.88655104	7.76491612	-0.92352981	2.64527476	9.53653430	-1.35444517	-0.84526650	9.20315211	-0.19938568	-2.01912486	11.06471173	-4.28154800	5.44878279	6.99288864	1.86405933	9.27897819
5545	55.44000000	8.48056013	1.42177072	5.69330860	8.98984450	-0.86591391	1.98759248	8.89145357	3.85896066	0.80372030	7.76330533	-1.23626251	2.69421377	9.51968708	-1.42557768	-0.77831420	9.25484480	-0.10334332	-1.97661278	11.38028043	-4.16829824	5.87749056	6.62007899	2.14202346	9.59427643
5546	55.45000000	8.57950750	1.46931302	5.67738875	8.92301577	-1.05619867	1.87515014	9.23695514	4.07750097	0.59108327	7.84714872	-1.47855744	2.61763850	9.45014209	-1.44928036	-0.68847112	9.39938106	-0.10429775	-1.91173015	11.84635411	-3.57615015	6.59527555	6.78966379	2.04165621	9.44810377
5547	55.46000000	8.57861043	1.50055456	5.72060772	9.07270191	-1.05225775	1.81220365	9.65244177	4.23236388	0.37576422	7.90274836	-1.80940791	2.49719899	9.61112937	-1.53494091	-0.86585254	9.48904103	-0.18519173	-1.93124279	12.25605035	-2.97125700	7.07532401	7.14108348	1.92263606	9.12221909
5548	55.47000000	8.58440097	1.51403182	5.83939162	9.18669498	-0.99060945	1.73429035	9.91367339	4.12950761	0.38987501	7.95590484	-2.16828466	2.33697062	9.75602035	-1.60373338	-0.78785421	9.47406023	-0.14660560	-1.93115194	12.46491595	-3.02061263	7.27957608	7.09088783	1.86280464	9.17113782
5549	55.48000000	8.62993872	1.56023596	5.87486104	9.25147784	-1.02420447	1.67061936	10.03032245	3.44508147	0.29427994	7.96623843	-2.61148615	2.18517489	9.68704695	-1.39413705	-0.58947444	9.33931122	-0.09319707	-1.96770886	12.83949581	-3.07997181	7.41242495	6.93986955	1.74123798	9.32904189
5550	55.49000000	8.63769274	1.59236653	5.87110246	9.31481674	-0.97070110	1.60312538	10.39309703	2.61234758	0.08455830	7.94583317	-3.08666497	2.06543113	9.57516460	-1.52292134	-0.60683063	9.23751122	-0.12376888	-1.94917024	12.94458600	-2.71092823	7.53435688	6.88918323	1.62102037	9.28915133
5551	55.50000000	8.63599778	1.65248146	5.90432723	9.37787483	-0.82331672	1.57530231	11.04514403	2.23850617	-0.08303107	7.88457077	-3.57822196	1.88463247	9.50308860	-1.55142972	-0.48348232	9.26825474	-0.17739453	-1.92616845	12.71260478	-1.88361730	7.56468209	7.12275439	1.54149774	9.15072726
5552	55.51000000	8.68650512	1.73862231	5.88909948	9.26672540	-1.04362849	1.56617143	11.42229529	2.39148621	-0.18468763	7.90517514	-4.03728482	1.71534412	9.69382147	-1.36248588	-0.52621476	9.35871739	-0.21635596	-1.90823539	12.46106404	-1.06915635	7.41266871	7.29320693	1.52169837	9.01892994
5553	55.52000000	8.70651052	1.76592302	5.94620518	9.31299542	-1.10045904	1.58017512	11.38898438	2.51972496	-0.10723914	8.03584999	-4.40975931	1.62661825	9.81737627	-1.24200137	-0.55673414	9.41530700	-0.13589616	-1.93022843	12.80703231	-0.91039507	7.27797560	7.19529648	1.50381005	9.10107525
5554	55.53000000	8.73505089	1.76253396	5.92160130	9.32730567	-1.25278106	1.60222607	11.32534940	2.49495765	0.29110452	8.11626049	-4.70343326	1.69371917	9.82310435	-1.20778014	-0.62808326	9.48785926	-0.04218962	-1.90734712	13.81303298	-1.34005329	7.04924707	6.88712188	1.66931779	9.40174653
5555	55.54000000	8.78651261	1.83028902	5.98322000	9.30318755	-1.31603655	1.55130413	11.06154578	2.62034961	0.64144305	8.30948726	-4.98395105	1.90438218	9.89413802	-0.91997247	-0.63601624	9.54353690	-0.12105441	-1.92233294	14.29462751	-1.46840242	6.43799920	7.15927589	1.81924988	9.19173768
5556	55.55000000	8.90022416	1.88613382	6.06438800	9.29125663	-1.35637888	1.51704096	10.45050344	2.60872387	0.92433743	8.56426960	-5.33925150	2.25252677	9.99506244	-0.83442332	-0.74048314	9.57832866	-0.05753577	-1.97582923	14.01623639	-0.93152408	5.43594739	7.28653392	1.74772636	9.04440974
5557	55.56000000	8.97309192	1.78425039	6.02079001	9.37665692	-1.34815618	1.46244642	10.09233010	2.09657231	1.15616695	8.77967551	-5.76641071	2.48722696	10.02455934	-0.94181740	-0.75341498	9.58978315	0.04246601	-2.02898781	13.54151267	-0.23195782	4.30000262	7.23033238	1.79521382	9.17510494
5558	55.57000000	9.00902537	1.73365194	6.06813459	9.47450583	-1.30721054	1.49385202	10.09912112	1.50973580	1.01427378	8.91747005	-6.06386840	2.61394055	10.11302168	-1.09821436	-0.80884483	9.64393458	0.09115455	-2.11138683	13.18423826	0.26708150	3.06881005	7.11251765	1.86744949	9.39104943
5559	55.58000000	9.08635094	1.66694063	6.09051506	9.60009598	-1.22805403	1.56176285	9.94671224	0.98783806	1.10760506	8.80566258	-6.18415633	2.66522219	10.20453472	-0.99348461	-0.81332898	9.71483109	0.17828156	-2.17894003	13.26115063	0.59862343	1.84749267	7.22231004	1.78029533	9.07493947
5560	55.59000000	9.10926294	1.72970977	6.10309040	9.58470564	-1.17159323	1.54047808	9.70757319	0.51167524	1.25248358	8.67240456	-6.13186668	2.33316965	10.18643093	-0.80338943	-0.81503244	9.68495844	0.21568781	-2.15018844	13.80823973	0.97944208	0.55273852	7.45990277	1.68153174	8.83298404
5561	55.60000000	9.08071454	1.85621268	6.15900496	9.51567741	-1.00796461	1.58090600	9.52365926	-0.07207098	1.42475130	8.90806310	-6.02159992	2.05569230	10.12449489	-0.82676387	-0.75885453	9.58155729	0.32670460	-2.11304393	14.32482918	1.40009807	-1.20519169	7.45385761	1.54578992	8.83839309
5562	55.61000000	9.09629562	1.89678567	6.17521981	9.39932200	-0.61169442	1.44562663	9.13432535	-1.17710457	1.72923186	9.22490521	-5.96669983	2.19374408	10.12177820	-0.67253549	-0.60778370	9.52813547	0.58625103	-1.95570142	14.39276196	1.98641897	-3.38745135	7.29347391	1.65287642	9.12671069
5563	55.62000000	9.16772214	1.90473335	6.19903443	9.39491010	-0.57122138	1.39607216	8.67674578	-2.45068633	1.76328891	9.60369625	-6.02417691	2.76895174	10.16927979	-0.42030903	-0.28673170	9.56833294	0.83962672	-1.83433080	14.15866624	2.78603891	-5.30546866	7.31809867	1.52268675	9.07989613
